# Blender v2.83.1 OBJ File: ''
# www.blender.org
mtllib ball.mtl
o Sphere
v -0.318229 -0.086364 -0.086888
v -0.318229 -0.126229 -0.113525
v -0.318229 -0.220276 -0.113525
v -0.318229 -0.286777 -0.047023
v -0.300234 -0.059728 -0.043444
v -0.284979 -0.086364 -0.080274
v -0.274785 -0.126229 -0.104883
v -0.271206 -0.173252 -0.113525
v -0.274785 -0.220276 -0.104883
v -0.284979 -0.260140 -0.080274
v -0.300234 -0.286777 -0.043444
v -0.284979 -0.059728 -0.033251
v -0.256790 -0.086364 -0.061439
v -0.237955 -0.126229 -0.080274
v -0.231341 -0.173252 -0.086888
v -0.237955 -0.220276 -0.080274
v -0.256790 -0.260140 -0.061439
v -0.284979 -0.286777 -0.033251
v -0.274785 -0.059728 -0.017995
v -0.237955 -0.086364 -0.033251
v -0.213346 -0.126229 -0.043444
v -0.204705 -0.173252 -0.047023
v -0.213346 -0.220276 -0.043444
v -0.237955 -0.260140 -0.033251
v -0.274785 -0.286777 -0.017995
v -0.271206 -0.059728 -0.000000
v -0.231341 -0.086364 -0.000000
v -0.204705 -0.126229 0.000000
v -0.195351 -0.173252 0.000000
v -0.204705 -0.220276 0.000000
v -0.231341 -0.260140 -0.000000
v -0.271206 -0.286777 -0.000000
v -0.274785 -0.059728 0.017995
v -0.237955 -0.086364 0.033251
v -0.213346 -0.126229 0.043444
v -0.204705 -0.173252 0.047023
v -0.213346 -0.220276 0.043444
v -0.237955 -0.260140 0.033251
v -0.274785 -0.286777 0.017995
v -0.284979 -0.059728 0.033251
v -0.256790 -0.086364 0.061439
v -0.237955 -0.126229 0.080274
v -0.231341 -0.173252 0.086888
v -0.237955 -0.220276 0.080274
v -0.256790 -0.260140 0.061439
v -0.284979 -0.286777 0.033251
v -0.300234 -0.059728 0.043444
v -0.284979 -0.086364 0.080274
v -0.274785 -0.126229 0.104883
v -0.271206 -0.173252 0.113525
v -0.274785 -0.220276 0.104883
v -0.284979 -0.260140 0.080274
v -0.300234 -0.286777 0.043444
v -0.318229 -0.059728 0.047023
v -0.318229 -0.086364 0.086888
v -0.318229 -0.126229 0.113525
v -0.318229 -0.173252 0.122878
v -0.318229 -0.220276 0.113525
v -0.318229 -0.260140 0.086888
v -0.318229 -0.286777 0.047023
v -0.336224 -0.059728 0.043444
v -0.351480 -0.086364 0.080274
v -0.361673 -0.126229 0.104883
v -0.365253 -0.173252 0.113525
v -0.361673 -0.220276 0.104883
v -0.351480 -0.260140 0.080274
v -0.336224 -0.286777 0.043444
v -0.351480 -0.059728 0.033251
v -0.379668 -0.086364 0.061439
v -0.398503 -0.126229 0.080274
v -0.405117 -0.173252 0.086888
v -0.398503 -0.220276 0.080274
v -0.379668 -0.260140 0.061439
v -0.351480 -0.286777 0.033251
v -0.361673 -0.059728 0.017995
v -0.398503 -0.086364 0.033251
v -0.423112 -0.126229 0.043444
v -0.431754 -0.173252 0.047023
v -0.423112 -0.220276 0.043444
v -0.398503 -0.260140 0.033251
v -0.361673 -0.286777 0.017995
v -0.365253 -0.059728 -0.000000
v -0.405117 -0.086364 -0.000000
v -0.431754 -0.126229 -0.000000
v -0.441107 -0.173252 -0.000000
v -0.431754 -0.220276 -0.000000
v -0.405117 -0.260140 -0.000000
v -0.365253 -0.286777 -0.000000
v -0.361673 -0.059728 -0.017995
v -0.398503 -0.086364 -0.033251
v -0.423112 -0.126229 -0.043444
v -0.431754 -0.173252 -0.047023
v -0.423112 -0.220276 -0.043444
v -0.398503 -0.260140 -0.033251
v -0.361673 -0.286777 -0.017995
v -0.351480 -0.059728 -0.033251
v -0.379668 -0.086364 -0.061439
v -0.398503 -0.126229 -0.080274
v -0.405117 -0.173252 -0.086888
v -0.398503 -0.220276 -0.080274
v -0.379668 -0.260140 -0.061439
v -0.351480 -0.286777 -0.033251
v -0.336224 -0.059728 -0.043444
v -0.351480 -0.086364 -0.080274
v -0.361673 -0.126229 -0.104883
v -0.365253 -0.173252 -0.113525
v -0.361673 -0.220276 -0.104883
v -0.351480 -0.260140 -0.080274
v -0.336224 -0.286777 -0.043444
v -0.318229 -0.050374 0.000000
v -0.318229 -0.059728 -0.047023
v -0.318229 -0.173252 -0.122878
v -0.318229 -0.260140 -0.086888
v -0.318229 -0.296131 -0.000000
vt 0.750000 0.250000
vt 0.687500 0.125000
vt 0.750000 0.125000
vt 0.750000 0.500000
vt 0.687500 0.375000
vt 0.750000 0.375000
vt 0.750000 0.750000
vt 0.687500 0.625000
vt 0.750000 0.625000
vt 0.750000 0.875000
vt 0.718750 1.000000
vt 0.687500 0.875000
vt 0.718750 0.000000
vt 0.687500 0.250000
vt 0.687500 0.500000
vt 0.687500 0.750000
vt 0.625000 0.625000
vt 0.656250 1.000000
vt 0.625000 0.875000
vt 0.656250 0.000000
vt 0.625000 0.125000
vt 0.625000 0.250000
vt 0.625000 0.500000
vt 0.625000 0.750000
vt 0.625000 0.375000
vt 0.593750 0.000000
vt 0.562500 0.125000
vt 0.562500 0.250000
vt 0.562500 0.500000
vt 0.562500 0.750000
vt 0.562500 0.375000
vt 0.562500 0.625000
vt 0.593750 1.000000
vt 0.562500 0.875000
vt 0.500000 0.750000
vt 0.500000 0.250000
vt 0.500000 0.125000
vt 0.500000 0.500000
vt 0.500000 0.375000
vt 0.500000 0.625000
vt 0.531250 1.000000
vt 0.500000 0.875000
vt 0.531250 0.000000
vt 0.437500 0.250000
vt 0.437500 0.125000
vt 0.437500 0.500000
vt 0.437500 0.375000
vt 0.437500 0.625000
vt 0.468750 1.000000
vt 0.437500 0.875000
vt 0.468750 0.000000
vt 0.437500 0.750000
vt 0.406250 1.000000
vt 0.375000 0.875000
vt 0.406250 0.000000
vt 0.375000 0.125000
vt 0.375000 0.250000
vt 0.375000 0.500000
vt 0.375000 0.750000
vt 0.375000 0.375000
vt 0.375000 0.625000
vt 0.312500 0.375000
vt 0.312500 0.250000
vt 0.312500 0.500000
vt 0.312500 0.875000
vt 0.312500 0.750000
vt 0.312500 0.125000
vt 0.312500 0.625000
vt 0.343750 1.000000
vt 0.343750 0.000000
vt 0.250000 0.125000
vt 0.250000 0.375000
vt 0.250000 0.625000
vt 0.281250 1.000000
vt 0.250000 0.875000
vt 0.281250 0.000000
vt 0.250000 0.250000
vt 0.250000 0.500000
vt 0.250000 0.750000
vt 0.187500 0.375000
vt 0.187500 0.625000
vt 0.218750 1.000000
vt 0.187500 0.875000
vt 0.218750 0.000000
vt 0.187500 0.125000
vt 0.187500 0.250000
vt 0.187500 0.500000
vt 0.187500 0.750000
vt 0.156250 0.000000
vt 0.125000 0.125000
vt 0.125000 0.375000
vt 0.125000 0.250000
vt 0.125000 0.500000
vt 0.125000 0.875000
vt 0.125000 0.750000
vt 0.125000 0.625000
vt 0.156250 1.000000
vt 0.062500 0.625000
vt 0.062500 0.500000
vt 0.062500 0.875000
vt 0.062500 0.750000
vt 0.062500 0.125000
vt 0.062500 0.375000
vt 0.093750 1.000000
vt 0.093750 0.000000
vt 0.062500 0.250000
vt 0.000000 0.125000
vt 0.000000 0.375000
vt 0.000000 0.625000
vt 0.031250 1.000000
vt 0.000000 0.875000
vt 0.031250 0.000000
vt 0.000000 0.250000
vt 0.000000 0.500000
vt 0.000000 0.750000
vt 1.000000 0.750000
vt 0.937500 0.625000
vt 1.000000 0.625000
vt 1.000000 0.875000
vt 0.968750 1.000000
vt 0.937500 0.875000
vt 0.968750 0.000000
vt 1.000000 0.125000
vt 0.937500 0.125000
vt 1.000000 0.250000
vt 0.937500 0.375000
vt 0.937500 0.250000
vt 1.000000 0.500000
vt 0.937500 0.500000
vt 0.937500 0.750000
vt 1.000000 0.375000
vt 0.906250 0.000000
vt 0.875000 0.125000
vt 0.875000 0.375000
vt 0.875000 0.250000
vt 0.875000 0.625000
vt 0.875000 0.500000
vt 0.875000 0.875000
vt 0.875000 0.750000
vt 0.906250 1.000000
vt 0.812500 0.875000
vt 0.812500 0.750000
vt 0.812500 0.250000
vt 0.812500 0.125000
vt 0.812500 0.375000
vt 0.812500 0.625000
vt 0.843750 1.000000
vt 0.843750 0.000000
vt 0.812500 0.500000
vt 0.781250 1.000000
vt 0.781250 0.000000
vn 0.0000 -0.6952 -0.7188
vn 0.1542 -0.9152 -0.3724
vn 0.0000 -0.9152 -0.4031
vn 0.0000 0.0000 -1.0000
vn 0.3548 -0.3743 -0.8567
vn 0.0000 -0.3743 -0.9273
vn 0.0000 0.6952 -0.7188
vn 0.3548 0.3743 -0.8567
vn 0.0000 0.3743 -0.9273
vn 0.0000 0.9152 -0.4031
vn 0.0000 1.0000 0.0000
vn 0.1542 0.9152 -0.3724
vn 0.0000 -1.0000 0.0000
vn 0.2751 -0.6952 -0.6641
vn 0.3827 0.0000 -0.9239
vn 0.2751 0.6952 -0.6641
vn 0.6557 0.3743 -0.6557
vn 0.2850 0.9152 -0.2850
vn 0.2850 -0.9152 -0.2850
vn 0.5083 -0.6952 -0.5083
vn 0.7071 0.0000 -0.7071
vn 0.5083 0.6952 -0.5083
vn 0.6557 -0.3743 -0.6557
vn 0.3724 -0.9152 -0.1542
vn 0.6641 -0.6952 -0.2751
vn 0.9239 0.0000 -0.3827
vn 0.6641 0.6952 -0.2751
vn 0.8567 -0.3743 -0.3548
vn 0.8567 0.3743 -0.3548
vn 0.3724 0.9152 -0.1542
vn 0.7188 0.6952 0.0000
vn 0.7188 -0.6952 0.0000
vn 0.4031 -0.9152 0.0000
vn 1.0000 0.0000 0.0000
vn 0.9273 -0.3743 0.0000
vn 0.9273 0.3743 0.0000
vn 0.4031 0.9152 0.0000
vn 0.6641 -0.6952 0.2751
vn 0.3724 -0.9152 0.1542
vn 0.9239 0.0000 0.3827
vn 0.8567 -0.3743 0.3548
vn 0.8567 0.3743 0.3548
vn 0.3724 0.9152 0.1542
vn 0.6641 0.6952 0.2751
vn 0.2850 0.9152 0.2850
vn 0.2850 -0.9152 0.2850
vn 0.5083 -0.6952 0.5083
vn 0.7071 0.0000 0.7071
vn 0.5083 0.6952 0.5083
vn 0.6557 -0.3743 0.6557
vn 0.6557 0.3743 0.6557
vn 0.3548 -0.3743 0.8567
vn 0.2751 -0.6952 0.6641
vn 0.3827 0.0000 0.9239
vn 0.1542 0.9152 0.3724
vn 0.2751 0.6952 0.6641
vn 0.1542 -0.9152 0.3724
vn 0.3548 0.3743 0.8567
vn 0.0000 -0.9152 0.4031
vn 0.0000 -0.3743 0.9273
vn 0.0000 0.3743 0.9273
vn 0.0000 0.9152 0.4031
vn 0.0000 -0.6952 0.7188
vn 0.0000 0.0000 1.0000
vn 0.0000 0.6952 0.7188
vn -0.3548 -0.3743 0.8567
vn -0.3548 0.3743 0.8567
vn -0.1542 0.9152 0.3724
vn -0.1542 -0.9152 0.3724
vn -0.2751 -0.6952 0.6641
vn -0.3827 0.0000 0.9239
vn -0.2751 0.6952 0.6641
vn -0.2850 -0.9152 0.2850
vn -0.6557 -0.3743 0.6557
vn -0.5083 -0.6952 0.5083
vn -0.7071 0.0000 0.7071
vn -0.2850 0.9152 0.2850
vn -0.5083 0.6952 0.5083
vn -0.6557 0.3743 0.6557
vn -0.8567 0.3743 0.3548
vn -0.9239 0.0000 0.3827
vn -0.3724 0.9152 0.1542
vn -0.6641 0.6952 0.2751
vn -0.3724 -0.9152 0.1542
vn -0.8567 -0.3743 0.3548
vn -0.6641 -0.6952 0.2751
vn -0.4031 -0.9152 0.0000
vn -0.9273 -0.3743 0.0000
vn -0.9273 0.3743 0.0000
vn -0.4031 0.9152 0.0000
vn -0.7188 -0.6952 0.0000
vn -1.0000 0.0000 0.0000
vn -0.7188 0.6952 0.0000
vn -0.8567 0.3743 -0.3548
vn -0.3724 0.9152 -0.1542
vn -0.3724 -0.9152 -0.1542
vn -0.8567 -0.3743 -0.3548
vn -0.6641 -0.6952 -0.2751
vn -0.9239 0.0000 -0.3827
vn -0.6641 0.6952 -0.2751
vn -0.2850 -0.9152 -0.2850
vn -0.6557 -0.3743 -0.6557
vn -0.5083 -0.6952 -0.5083
vn -0.6557 0.3743 -0.6557
vn -0.7071 0.0000 -0.7071
vn -0.2850 0.9152 -0.2850
vn -0.5083 0.6952 -0.5083
vn -0.1542 0.9152 -0.3724
vn -0.2751 0.6952 -0.6641
vn -0.2751 -0.6952 -0.6641
vn -0.1542 -0.9152 -0.3724
vn -0.3548 -0.3743 -0.8567
vn -0.3548 0.3743 -0.8567
vn -0.3827 0.0000 -0.9239
usemtl None
s 1
f 113/1/1 11/2/2 4/3/3
f 112/4/4 9/5/5 3/6/6
f 1/7/7 7/8/8 2/9/9
f 111/10/10 110/11/11 5/12/12
f 114/13/13 4/3/3 11/2/2
f 113/1/1 9/5/5 10/14/14
f 112/4/4 7/8/8 8/15/15
f 111/10/10 6/16/16 1/7/7
f 6/16/16 14/17/17 7/8/8
f 5/12/12 110/18/11 12/19/18
f 114/20/13 11/2/2 18/21/19
f 9/5/5 17/22/20 10/14/14
f 7/8/8 15/23/21 8/15/15
f 5/12/12 13/24/22 6/16/16
f 11/2/2 17/22/20 18/21/19
f 8/15/15 16/25/23 9/5/5
f 114/26/13 18/21/19 25/27/24
f 16/25/23 24/28/25 17/22/20
f 14/17/17 22/29/26 15/23/21
f 12/19/18 20/30/27 13/24/22
f 18/21/19 24/28/25 25/27/24
f 15/23/21 23/31/28 16/25/23
f 13/24/22 21/32/29 14/17/17
f 12/19/18 110/33/11 19/34/30
f 19/34/30 27/35/31 20/30/27
f 25/27/24 31/36/32 32/37/33
f 23/31/28 29/38/34 30/39/35
f 21/32/29 27/35/31 28/40/36
f 19/34/30 110/41/11 26/42/37
f 114/43/13 25/27/24 32/37/33
f 23/31/28 31/36/32 24/28/25
f 21/32/29 29/38/34 22/29/26
f 32/37/33 38/44/38 39/45/39
f 30/39/35 36/46/40 37/47/41
f 27/35/31 35/48/42 28/40/36
f 26/42/37 110/49/11 33/50/43
f 114/51/13 32/37/33 39/45/39
f 30/39/35 38/44/38 31/36/32
f 28/40/36 36/46/40 29/38/34
f 26/42/37 34/52/44 27/35/31
f 33/50/43 110/53/11 40/54/45
f 114/55/13 39/45/39 46/56/46
f 37/47/41 45/57/47 38/44/38
f 35/48/42 43/58/48 36/46/40
f 34/52/44 40/54/45 41/59/49
f 39/45/39 45/57/47 46/56/46
f 36/46/40 44/60/50 37/47/41
f 34/52/44 42/61/51 35/48/42
f 45/57/47 51/62/52 52/63/53
f 42/61/51 50/64/54 43/58/48
f 41/59/49 47/65/55 48/66/56
f 45/57/47 53/67/57 46/56/46
f 43/58/48 51/62/52 44/60/50
f 41/59/49 49/68/58 42/61/51
f 40/54/45 110/69/11 47/65/55
f 114/70/13 46/56/46 53/67/57
f 52/63/53 60/71/59 53/67/57
f 50/64/54 58/72/60 51/62/52
f 48/66/56 56/73/61 49/68/58
f 47/65/55 110/74/11 54/75/62
f 114/76/13 53/67/57 60/71/59
f 52/63/53 58/72/60 59/77/63
f 49/68/58 57/78/64 50/64/54
f 48/66/56 54/75/62 55/79/65
f 57/78/64 65/80/66 58/72/60
f 55/79/65 63/81/67 56/73/61
f 54/75/62 110/82/11 61/83/68
f 114/84/13 60/71/59 67/85/69
f 59/77/63 65/80/66 66/86/70
f 56/73/61 64/87/71 57/78/64
f 55/79/65 61/83/68 62/88/72
f 59/77/63 67/85/69 60/71/59
f 114/89/13 67/85/69 74/90/73
f 66/86/70 72/91/74 73/92/75
f 63/81/67 71/93/76 64/87/71
f 62/88/72 68/94/77 69/95/78
f 67/85/69 73/92/75 74/90/73
f 65/80/66 71/93/76 72/91/74
f 62/88/72 70/96/79 63/81/67
f 61/83/68 110/97/11 68/94/77
f 71/93/76 77/98/80 78/99/81
f 69/95/78 75/100/82 76/101/83
f 73/92/75 81/102/84 74/90/73
f 71/93/76 79/103/85 72/91/74
f 69/95/78 77/98/80 70/96/79
f 68/94/77 110/104/11 75/100/82
f 114/105/13 74/90/73 81/102/84
f 73/92/75 79/103/85 80/106/86
f 80/106/86 88/107/87 81/102/84
f 78/99/81 86/108/88 79/103/85
f 76/101/83 84/109/89 77/98/80
f 75/100/82 110/110/11 82/111/90
f 114/112/13 81/102/84 88/107/87
f 80/106/86 86/108/88 87/113/91
f 78/99/81 84/109/89 85/114/92
f 76/101/83 82/111/90 83/115/93
f 83/116/93 91/117/94 84/118/89
f 82/119/90 110/120/11 89/121/95
f 114/122/13 88/123/87 95/124/96
f 87/125/91 93/126/97 94/127/98
f 85/128/92 91/117/94 92/129/99
f 83/116/93 89/121/95 90/130/100
f 88/123/87 94/127/98 95/124/96
f 85/128/92 93/126/97 86/131/88
f 114/132/13 95/124/96 102/133/101
f 94/127/98 100/134/102 101/135/103
f 92/129/99 98/136/104 99/137/105
f 90/130/100 96/138/106 97/139/107
f 95/124/96 101/135/103 102/133/101
f 92/129/99 100/134/102 93/126/97
f 90/130/100 98/136/104 91/117/94
f 89/121/95 110/140/11 96/138/106
f 97/139/107 103/141/108 104/142/109
f 102/133/101 108/143/110 109/144/111
f 99/137/105 107/145/112 100/134/102
f 97/139/107 105/146/113 98/136/104
f 96/138/106 110/147/11 103/141/108
f 114/148/13 102/133/101 109/144/111
f 101/135/103 107/145/112 108/143/110
f 99/137/105 105/146/113 106/149/114
f 108/143/110 4/3/3 109/144/111
f 106/149/114 3/6/6 107/145/112
f 105/146/113 1/7/7 2/9/9
f 103/141/108 110/150/11 111/10/10
f 114/151/13 109/144/111 4/3/3
f 108/143/110 3/6/6 113/1/1
f 106/149/114 2/9/9 112/4/4
f 104/142/109 111/10/10 1/7/7
f 113/1/1 10/14/14 11/2/2
f 112/4/4 8/15/15 9/5/5
f 1/7/7 6/16/16 7/8/8
f 113/1/1 3/6/6 9/5/5
f 112/4/4 2/9/9 7/8/8
f 111/10/10 5/12/12 6/16/16
f 6/16/16 13/24/22 14/17/17
f 9/5/5 16/25/23 17/22/20
f 7/8/8 14/17/17 15/23/21
f 5/12/12 12/19/18 13/24/22
f 11/2/2 10/14/14 17/22/20
f 8/15/15 15/23/21 16/25/23
f 16/25/23 23/31/28 24/28/25
f 14/17/17 21/32/29 22/29/26
f 12/19/18 19/34/30 20/30/27
f 18/21/19 17/22/20 24/28/25
f 15/23/21 22/29/26 23/31/28
f 13/24/22 20/30/27 21/32/29
f 19/34/30 26/42/37 27/35/31
f 25/27/24 24/28/25 31/36/32
f 23/31/28 22/29/26 29/38/34
f 21/32/29 20/30/27 27/35/31
f 23/31/28 30/39/35 31/36/32
f 21/32/29 28/40/36 29/38/34
f 32/37/33 31/36/32 38/44/38
f 30/39/35 29/38/34 36/46/40
f 27/35/31 34/52/44 35/48/42
f 30/39/35 37/47/41 38/44/38
f 28/40/36 35/48/42 36/46/40
f 26/42/37 33/50/43 34/52/44
f 37/47/41 44/60/50 45/57/47
f 35/48/42 42/61/51 43/58/48
f 34/52/44 33/50/43 40/54/45
f 39/45/39 38/44/38 45/57/47
f 36/46/40 43/58/48 44/60/50
f 34/52/44 41/59/49 42/61/51
f 45/57/47 44/60/50 51/62/52
f 42/61/51 49/68/58 50/64/54
f 41/59/49 40/54/45 47/65/55
f 45/57/47 52/63/53 53/67/57
f 43/58/48 50/64/54 51/62/52
f 41/59/49 48/66/56 49/68/58
f 52/63/53 59/77/63 60/71/59
f 50/64/54 57/78/64 58/72/60
f 48/66/56 55/79/65 56/73/61
f 52/63/53 51/62/52 58/72/60
f 49/68/58 56/73/61 57/78/64
f 48/66/56 47/65/55 54/75/62
f 57/78/64 64/87/71 65/80/66
f 55/79/65 62/88/72 63/81/67
f 59/77/63 58/72/60 65/80/66
f 56/73/61 63/81/67 64/87/71
f 55/79/65 54/75/62 61/83/68
f 59/77/63 66/86/70 67/85/69
f 66/86/70 65/80/66 72/91/74
f 63/81/67 70/96/79 71/93/76
f 62/88/72 61/83/68 68/94/77
f 67/85/69 66/86/70 73/92/75
f 65/80/66 64/87/71 71/93/76
f 62/88/72 69/95/78 70/96/79
f 71/93/76 70/96/79 77/98/80
f 69/95/78 68/94/77 75/100/82
f 73/92/75 80/106/86 81/102/84
f 71/93/76 78/99/81 79/103/85
f 69/95/78 76/101/83 77/98/80
f 73/92/75 72/91/74 79/103/85
f 80/106/86 87/113/91 88/107/87
f 78/99/81 85/114/92 86/108/88
f 76/101/83 83/115/93 84/109/89
f 80/106/86 79/103/85 86/108/88
f 78/99/81 77/98/80 84/109/89
f 76/101/83 75/100/82 82/111/90
f 83/116/93 90/130/100 91/117/94
f 87/125/91 86/131/88 93/126/97
f 85/128/92 84/118/89 91/117/94
f 83/116/93 82/119/90 89/121/95
f 88/123/87 87/125/91 94/127/98
f 85/128/92 92/129/99 93/126/97
f 94/127/98 93/126/97 100/134/102
f 92/129/99 91/117/94 98/136/104
f 90/130/100 89/121/95 96/138/106
f 95/124/96 94/127/98 101/135/103
f 92/129/99 99/137/105 100/134/102
f 90/130/100 97/139/107 98/136/104
f 97/139/107 96/138/106 103/141/108
f 102/133/101 101/135/103 108/143/110
f 99/137/105 106/149/114 107/145/112
f 97/139/107 104/142/109 105/146/113
f 101/135/103 100/134/102 107/145/112
f 99/137/105 98/136/104 105/146/113
f 108/143/110 113/1/1 4/3/3
f 106/149/114 112/4/4 3/6/6
f 105/146/113 104/142/109 1/7/7
f 108/143/110 107/145/112 3/6/6
f 106/149/114 105/146/113 2/9/9
f 104/142/109 103/141/108 111/10/10
