# Blender v2.81 (sub 16) OBJ File: 'path-tracer-scene.blend'
# www.blender.org
mtllib test3.mtl
o Icosphere.001_Icosphere.002
v 0.182094 -0.077749 0.000000
v 0.255470 -0.021695 0.053310
v 0.154068 -0.021695 0.086257
v 0.091397 -0.021695 0.000000
v 0.154068 -0.021695 -0.086257
v 0.255470 -0.021695 -0.053310
v 0.210121 0.069003 0.086257
v 0.108719 0.069003 0.053310
v 0.108719 0.069003 -0.053310
v 0.210121 0.069003 -0.086257
v 0.272792 0.069003 0.000000
v 0.182094 0.125057 0.000000
vt 0.818181 0.000000
vt 0.727272 0.157461
vt 0.909090 0.157461
vt 0.636363 0.000000
vt 0.545454 0.157461
vt 0.090909 0.000000
vt 0.000000 0.157461
vt 0.181818 0.157461
vt 0.272727 0.000000
vt 0.363636 0.157461
vt 0.454545 0.000000
vt 0.636363 0.314921
vt 0.818181 0.314921
vt 0.090909 0.314921
vt 0.272727 0.314921
vt 0.454545 0.314921
vt 1.000000 0.314921
vt 0.727272 0.472382
vt 0.909090 0.472382
vt 0.181818 0.472382
vt 0.363636 0.472382
vt 0.545454 0.472382
vn 0.0000 -1.0000 0.0000
vn 0.7236 -0.4472 0.5257
vn -0.2764 -0.4472 0.8506
vn 0.7236 -0.4472 -0.5257
vn -0.8944 -0.4472 0.0000
vn -0.2764 -0.4472 -0.8506
vn 0.8944 0.4472 0.0000
vn 0.2764 0.4472 0.8506
vn -0.7236 0.4472 0.5257
vn -0.7236 0.4472 -0.5257
vn 0.2764 0.4472 -0.8506
vn 0.0000 1.0000 0.0000
usemtl None
s 1
f 1/1/1 2/2/2 3/3/3
f 2/2/2 1/4/1 6/5/4
f 1/6/1 3/7/3 4/8/5
f 1/9/1 4/8/5 5/10/6
f 1/11/1 5/10/6 6/5/4
f 2/2/2 6/5/4 11/12/7
f 3/3/3 2/2/2 7/13/8
f 4/8/5 3/7/3 8/14/9
f 5/10/6 4/8/5 9/15/10
f 6/5/4 5/10/6 10/16/11
f 2/2/2 11/12/7 7/13/8
f 3/3/3 7/13/8 8/17/9
f 4/8/5 8/14/9 9/15/10
f 5/10/6 9/15/10 10/16/11
f 6/5/4 10/16/11 11/12/7
f 7/13/8 11/12/7 12/18/12
f 8/17/9 7/13/8 12/19/12
f 9/15/10 8/14/9 12/20/12
f 10/16/11 9/15/10 12/21/12
f 11/12/7 10/16/11 12/22/12
